HIERARCHY
ROOT Hips
{
     OFFSET 14.93470 93.75050 -28.65700
     CHANNELS 6 Xposition Yposition Zposition Zrotation Xrotation Yrotation
     JOINT Spine
     {
          OFFSET 0.00000 11.89050 0.00000
          CHANNELS 3 Zrotation Xrotation Yrotation
          JOINT Spine1
          {
               OFFSET 0.00000 25.65740 0.12766
               CHANNELS 3 Zrotation Xrotation Yrotation
               JOINT HEad
               {
                    OFFSET -0.00000 8.73416 0.01134
                    CHANNELS 3 Zrotation Xrotation Yrotation
                    End Site
                    {
                         OFFSET -0.29000 12.77420 2.51395
                    }
               }
               JOINT LeftShoulder1
               {
                    OFFSET 8.99000 -0.36225 -0.22000
                    CHANNELS 3 Zrotation Xrotation Yrotation
                    JOINT LeftArm
                    {
                         OFFSET 10.28270 -0.00338 0.32212
                         CHANNELS 3 Zrotation Xrotation Yrotation
                         JOINT LeftForeArm
                         {
                              OFFSET 32.76690 0.09914 -1.42434
                              CHANNELS 3 Zrotation Xrotation Yrotation
                              JOINT LeftHand
                              {
                                   OFFSET 27.56430 0.08536 1.02216
                                   CHANNELS 3 Zrotation Xrotation Yrotation
                                   End Site
                                   {
                                        OFFSET 16.74430 -0.60000 1.50291
                                   }
                              }
                         }
                    }
               }
               JOINT RightShoulder
               {
                    OFFSET -8.99000 -0.36225 -0.22000
                    CHANNELS 3 Zrotation Xrotation Yrotation
                    JOINT RightArm
                    {
                         OFFSET -10.28270 -0.00338 0.32212
                         CHANNELS 3 Zrotation Xrotation Yrotation
                         JOINT RightForeArm
                         {
                              OFFSET -32.89710 0.09914 -1.42434
                              CHANNELS 3 Zrotation Xrotation Yrotation
                              JOINT RightHand
                              {
                                   OFFSET -27.49210 0.08536 1.02216
                                   CHANNELS 3 Zrotation Xrotation Yrotation
                                   End Site
                                   {
                                        OFFSET -16.63120 -0.60000 1.50291
                                   }
                              }
                         }
                    }
               }
          }
     }
     JOINT LeftUpLeg
     {
          OFFSET 8.94580 -8.66707 0.10165
          CHANNELS 3 Zrotation Xrotation Yrotation
          JOINT LeftLeg
          {
               OFFSET -0.00000 -44.42270 1.37270
               CHANNELS 3 Zrotation Xrotation Yrotation
               JOINT LeftFoot
               {
                    OFFSET -0.25355 -42.09240 -1.46059
                    CHANNELS 3 Zrotation Xrotation Yrotation
                    JOINT LeftToes
                    {
                         OFFSET -0.04000 -4.41509 8.49910
                         CHANNELS 3 Zrotation Xrotation Yrotation
                         End Site
                         {
                              OFFSET 0.08000 -0.04745 9.77979
                         }
                    }
               }
          }
     }
     JOINT RightUpLeg
     {
          OFFSET -8.94580 -8.66707 0.10165
          CHANNELS 3 Zrotation Xrotation Yrotation
          JOINT RightLeg
          {
               OFFSET 0.00000 -44.42270 1.37270
               CHANNELS 3 Zrotation Xrotation Yrotation
               JOINT RightFoot
               {
                    OFFSET 0.25355 -42.09240 -1.46059
                    CHANNELS 3 Zrotation Xrotation Yrotation
                    JOINT RightToes
                    {
                         OFFSET 0.04000 -4.41509 8.49910
                         CHANNELS 3 Zrotation Xrotation Yrotation
                         End Site
                         {
                              OFFSET -0.08000 -0.13745 9.77979
                         }
                    }
               }
          }
     }
}
MOTION
Frames: 20
Frame Time: 0.01667
18.41640 93.19230 -1.78563 5.53599 -12.99900 30.35200 -2.45254 12.32410 7.63104 -8.58257 24.14790 19.41990 8.74667 -13.84760 -37.19460 -0.00000 0.00000 -0.00000 -119.14400 -42.42450 -104.37000 -73.05740 50.51220 -54.16490 16.72450 6.22780 -21.59890 -13.11560 -0.89261 12.64060 86.73410 -30.27490 88.58920 6.34353 26.96440 87.94770 28.65630 14.17990 12.24500 -2.05877 -14.05870 -16.00730 -10.66240 11.28190 28.12850 -1.39185 28.81040 0.25323 4.67303 -22.66470 -74.47490 -26.47940 25.30320 16.61710 46.39820 16.53350 -25.90440 -19.27920 23.32190 5.27987 15.76150 -42.93830 42.12020 
18.63040 93.30980 -1.84240 4.85973 -13.08730 29.46090 -2.47558 12.46320 7.22158 -8.59133 24.43100 18.58310 8.74125 -12.94410 -35.65220 -0.00000 0.00000 -0.00000 -119.67100 -43.50940 -104.13900 -71.78410 51.67740 -55.34730 17.87290 6.01644 -21.23670 -10.76010 -0.55167 11.82990 86.86230 -32.19270 86.07910 6.67510 25.95100 86.50990 28.94640 13.83000 10.74440 -1.22555 -14.15500 -16.15030 -11.02730 10.93070 28.97420 -1.32245 28.41090 0.22889 4.99130 -22.02550 -74.38900 -26.66950 24.53660 16.72250 46.36750 16.67910 -26.56010 -20.06800 23.94970 5.61518 16.29660 -42.70170 44.23270 
18.93530 93.43880 -1.95841 4.00879 -13.16540 28.22980 -2.47521 12.56300 6.60023 -8.53037 24.65690 17.32790 8.87620 -12.18080 -33.95200 -0.00000 0.00000 -0.00000 -120.37100 -43.99520 -103.99900 -70.64640 53.12170 -56.31790 18.88610 5.85096 -20.82520 -8.22873 -0.22537 11.01430 86.53810 -33.25660 83.80480 7.40722 25.14150 85.47120 29.21690 13.54020 9.50695 -0.30672 -14.34120 -16.01690 -11.27120 10.66810 29.89040 -1.17469 28.00540 0.18064 5.25968 -21.48220 -74.30480 -26.84360 23.53420 16.78050 46.33720 17.03130 -27.67930 -21.11730 24.22760 5.96749 16.52590 -42.57890 45.18090 
19.32730 93.56440 -2.13445 2.97465 -13.22100 26.59150 -2.43577 12.62130 5.78162 -8.37353 24.81810 15.69280 9.08832 -11.56140 -31.70890 -0.00000 0.00000 -0.00000 -120.99600 -43.94850 -103.98000 -69.69680 54.61380 -56.95120 19.60970 5.76480 -20.37160 -5.52797 0.08168 10.22570 86.42940 -33.27220 82.23900 8.58470 24.82120 84.98520 29.30160 13.39280 8.90999 0.73690 -14.65630 -15.71310 -11.47320 10.53970 31.01650 -0.86285 27.56130 0.08296 5.43679 -21.11930 -74.15870 -27.00650 22.20200 16.74900 46.29460 17.73180 -28.83000 -22.10000 24.46450 6.29838 16.27090 -42.41960 44.69910 
19.81000 93.66710 -2.36867 1.76252 -13.26260 24.44810 -2.34137 12.65580 4.79563 -8.10090 24.94250 13.74230 9.26947 -11.12660 -28.72400 -0.00000 0.00000 -0.00000 -121.46100 -43.55190 -104.19900 -68.96390 55.92550 -57.09520 19.99530 5.76036 -19.90850 -2.81041 0.35565 9.59016 86.91010 -32.31770 81.53340 10.07220 25.05360 85.00850 29.05110 13.39150 9.02039 2.02530 -15.08760 -15.52820 -11.86180 10.48860 32.71590 -0.28852 27.07850 -0.09170 5.46698 -21.05080 -73.87370 -27.19670 20.48990 16.59890 46.26660 18.86010 -29.68810 -22.81460 24.99320 6.61736 15.51770 -42.26070 42.62450 
20.38400 93.72540 -2.65632 0.38647 -13.30910 21.74540 -2.18422 12.70380 3.68255 -7.68372 25.09050 11.54780 9.32522 -10.91080 -25.01710 -0.00000 0.00000 -0.00000 -121.77400 -42.99220 -104.78200 -68.40820 56.82010 -56.65510 20.07950 5.81408 -19.50170 -0.38675 0.58249 9.22093 88.11540 -30.58690 81.53940 11.57140 25.76940 85.47500 28.37500 13.46560 9.63065 3.67542 -15.60720 -15.73100 -12.66020 10.47220 35.33530 0.47393 26.58000 -0.31744 5.35180 -21.27900 -73.43710 -27.45140 18.43590 16.34720 46.34040 20.36020 -30.26480 -23.25600 25.89850 6.94267 14.30050 -42.17290 38.83220 
21.03830 93.72160 -2.99170 -1.13631 -13.38790 18.51520 -1.97992 12.79850 2.49834 -7.10751 25.31130 9.20006 9.24840 -10.87470 -20.76040 -0.00000 0.00000 -0.00000 -122.01600 -42.42780 -105.82100 -68.01290 57.12900 -55.58000 19.90440 5.89993 -19.22830 1.53284 0.76227 9.12090 89.89400 -28.27340 81.93500 12.77640 26.79160 86.30630 27.31050 13.52830 10.43130 5.71543 -16.18840 -16.32740 -13.91890 10.56020 38.86130 1.16813 26.05950 -0.51602 5.16862 -21.65250 -72.89780 -27.77680 16.18750 16.04140 46.61420 22.05140 -30.88690 -23.62450 26.95460 7.28624 12.65490 -42.06840 33.46880 
21.75220 93.65040 -3.36319 -2.79281 -13.52050 14.86590 -1.76516 12.93840 1.32478 -6.40473 25.59160 6.84583 9.12067 -10.88810 -16.21270 -0.00000 0.00000 -0.00000 -122.43700 -41.96990 -107.36400 -67.89290 56.94800 -53.81310 19.48820 6.01134 -19.09640 3.13456 0.91814 9.15192 91.73070 -25.58780 82.34720 13.60820 27.89450 87.35430 26.03210 13.53430 11.18110 8.06180 -16.78440 -16.96020 -15.46280 10.90880 42.84910 1.62422 25.49180 -0.63838 4.95771 -22.09330 -72.41200 -28.14260 13.96160 15.69460 47.11650 23.73610 -31.95620 -24.21940 27.77600 7.65836 10.78070 -41.71160 27.42090 
22.50270 93.51950 -3.74944 -4.56493 -13.70560 10.94500 -1.56752 13.09060 0.25466 -5.63603 25.87300 4.67386 9.01153 -10.79170 -11.67630 -0.00000 0.00000 -0.00000 -120.31300 -41.47150 -107.61800 -64.46690 55.68240 -55.18820 18.97500 6.20087 -18.61070 4.81870 1.07502 9.08879 93.05150 -22.79170 82.49780 14.22860 28.92900 88.43130 24.72530 13.48710 11.78480 10.58340 -17.30800 -17.16820 -17.04110 11.62390 46.79400 1.94839 24.89380 -0.71803 4.64531 -22.75390 -72.22880 -28.50940 11.96880 15.26650 47.76830 25.30740 -33.64830 -25.18690 28.00730 8.02531 9.04318 -40.90430 22.07160 
23.26770 93.34160 -4.12517 -6.41351 -13.91560 6.89594 -1.38477 13.22680 -0.65597 -4.84331 26.11840 2.81320 8.88023 -10.47400 -7.38790 -0.00000 0.00000 -0.00000 -115.42500 -40.89130 -106.23500 -57.61430 53.24870 -59.99230 18.51830 6.45182 -17.64350 6.71563 1.22482 8.77440 93.68900 -20.12420 82.32710 14.79830 29.86990 89.41890 23.49570 13.40490 12.23200 13.18400 -17.66300 -16.79000 -18.53650 12.64390 50.48440 2.34017 24.28310 -0.81277 4.16512 -23.75480 -72.44590 -28.86360 10.34930 14.73480 48.43050 26.74160 -35.73820 -26.32570 27.52440 8.27911 7.65268 -39.56910 18.21240 
24.01990 93.12580 -4.47020 -8.27339 -14.09890 2.82423 -1.21046 13.33950 -1.40377 -4.05151 26.32780 1.27960 8.61177 -9.92378 -3.48750 -0.00000 0.00000 -0.00000 -111.76500 -40.45730 -105.29000 -51.82020 51.20920 -63.78040 18.26720 6.64285 -16.75360 8.61065 1.33793 8.23916 93.88160 -17.73440 81.96240 15.28720 30.74290 90.32860 22.41960 13.30220 12.50890 15.80580 -17.80090 -15.99060 -19.98050 13.79400 53.93500 2.82025 23.64260 -0.92649 3.57305 -24.95360 -72.88310 -29.22880 9.14044 14.18200 48.98700 28.00590 -37.70190 -27.19070 26.60550 8.32695 6.53962 -37.77780 15.52190 
24.72140 92.87570 -4.77682 -10.05530 -14.19640 -1.20798 -1.06903 13.43000 -1.99888 -3.29872 26.50440 0.03968 8.15924 -9.23579 -0.09761 -0.00000 0.00000 -0.00000 -109.70700 -40.24670 -104.87400 -47.32250 49.92780 -66.49180 18.35740 6.72934 -16.10350 10.25850 1.40518 7.64765 93.92000 -15.71530 81.57000 15.54290 31.55180 91.24950 21.60920 13.19550 12.58460 18.38390 -17.73230 -14.99540 -21.41380 14.92650 57.18630 3.25220 22.99330 -1.02169 2.96533 -26.15050 -73.30360 -29.65410 8.30081 13.79690 49.38040 28.99090 -39.05180 -27.47000 25.86410 8.22650 5.62595 -35.91450 13.32390 
25.32880 92.58970 -5.05608 -11.66660 -14.17640 -5.16894 -1.01141 13.49730 -2.43210 -2.62812 26.63540 -0.92454 7.58249 -8.53647 2.70011 -0.00000 0.00000 -0.00000 -109.18000 -40.28400 -104.90900 -44.15020 49.40740 -68.27730 18.73820 6.71585 -15.75690 11.55750 1.44231 7.15389 93.94050 -14.12440 81.23830 15.49860 32.26130 92.22910 21.18480 13.10700 12.45630 20.83420 -17.49080 -13.94290 -22.81100 15.97820 60.24120 3.53185 22.39990 -1.07428 2.37041 -27.30230 -73.60550 -30.18260 7.77490 13.78480 49.57320 29.53860 -39.58810 -27.26960 25.89490 8.17237 5.02369 -34.70220 11.56330 
25.80490 92.26750 -5.33551 -13.04360 -14.05260 -9.03500 -1.07316 13.53380 -2.68705 -2.06546 26.69990 -1.61778 6.96112 -7.90032 4.91430 -0.00000 0.00000 -0.00000 -109.88600 -40.56100 -105.25500 -42.11590 49.46480 -69.42310 19.20610 6.64829 -15.65580 12.52150 1.46473 6.80062 93.92220 -12.93690 80.95090 15.24610 32.82530 93.21300 21.13300 13.05280 12.21480 23.08490 -17.08930 -12.92450 -24.11820 16.89730 63.08290 3.69273 21.89070 -1.09677 1.77178 -28.45430 -73.77340 -30.80930 7.53363 14.25860 49.49940 29.54420 -39.32550 -26.96850 26.92380 8.33650 4.87583 -34.75270 10.69900 
26.12740 91.92210 -5.64729 -14.16110 -13.86140 -12.77150 -1.23351 13.52980 -2.76861 -1.62244 26.68880 -2.05340 6.33775 -7.33044 6.60766 -0.00000 0.00000 -0.00000 -111.69800 -41.07640 -105.92600 -40.97770 50.05380 -70.15630 19.57300 6.57954 -15.67230 13.19800 1.47103 6.51604 93.80660 -12.01760 80.64070 14.88180 33.22810 94.12770 21.23250 13.03030 12.02240 25.09710 -16.50130 -12.05800 -25.29890 17.54140 65.70050 3.86133 21.43770 -1.12204 1.19141 -29.58240 -73.75990 -31.48050 7.56579 15.19480 49.07800 29.02100 -38.31130 -26.78190 28.74100 8.72980 5.16423 -36.05540 10.82440 
26.29080 91.58210 -6.02274 -15.01330 -13.63380 -16.34370 -1.43437 13.48930 -2.70646 -1.31546 26.62370 -2.25627 5.70968 -6.80960 7.89023 -0.00000 0.00000 -0.00000 -114.59400 -41.81420 -107.06600 -40.48660 51.24770 -70.62320 19.83800 6.53032 -15.68100 13.59180 1.44703 6.19132 93.64450 -11.16720 80.27610 14.39050 33.49090 94.97120 21.24210 13.02210 11.97280 26.84170 -15.69620 -11.45020 -26.31030 17.74310 68.03510 4.08498 20.99150 -1.16000 0.75088 -30.49360 -73.42380 -32.13350 7.84520 16.48760 48.26380 28.05880 -36.59450 -26.53900 30.85180 9.17251 5.68468 -38.07600 11.29430 
26.29820 91.28090 -6.49408 -15.60100 -13.38480 -19.73540 -1.63835 13.42770 -2.53411 -1.17023 26.53490 -2.25308 5.04354 -6.33827 8.91214 -0.00000 0.00000 -0.00000 -118.34600 -42.72000 -108.73300 -40.46880 52.96180 -70.86790 20.12670 6.48753 -15.62820 13.69940 1.38687 5.78048 93.56670 -10.23970 79.87520 13.73470 33.65290 95.77650 21.11260 13.01180 12.01680 28.28940 -14.68930 -11.11270 -27.07420 17.44570 69.95550 4.26481 20.53300 -1.18494 0.62877 -30.89330 -72.59430 -32.71730 8.32030 18.01780 47.07310 26.74340 -34.31990 -25.95030 32.62920 9.39844 6.16155 -40.35780 11.23090 
26.15470 91.03980 -7.09138 -15.94170 -13.10650 -22.93860 -1.83533 13.35030 -2.27681 -1.19939 26.42130 -2.06764 4.30714 -5.90228 9.78934 -0.00000 0.00000 -0.00000 -122.36900 -43.71870 -110.71100 -40.86960 54.80490 -70.83330 20.47940 6.43999 -15.53880 13.59280 1.30794 5.34388 93.61050 -9.22942 79.44750 12.96560 33.73760 96.54030 20.93500 12.99310 12.05390 29.45440 -13.54580 -11.00900 -27.52700 16.67540 71.39710 4.31200 20.10910 -1.17794 0.91864 -30.58960 -71.21380 -33.18200 8.93304 19.65690 45.57500 25.12620 -31.78160 -24.97360 33.43510 9.22803 6.42877 -42.95190 10.11830 
25.86730 90.86220 -7.83833 -16.08200 -12.77110 -25.93090 -2.00442 13.25120 -1.95814 -1.37896 26.26110 -1.72724 3.51222 -5.49371 10.57690 -0.00000 0.00000 -0.00000 -125.93800 -44.76270 -112.60900 -41.62380 56.28250 -70.48910 20.80420 6.39310 -15.47600 13.39280 1.23827 4.99346 93.69350 -8.22326 78.98430 12.20060 33.74240 97.22450 20.78590 12.96670 12.02940 30.42030 -12.34340 -11.15580 -27.66820 15.43260 72.41800 4.25937 19.78520 -1.15117 1.59300 -29.53930 -69.31870 -33.46530 9.63138 21.24360 43.88130 23.26000 -29.33710 -23.82070 32.76230 8.64337 6.37686 -46.12670 7.74837 
25.44770 90.73850 -8.75452 -16.08240 -12.35570 -28.66360 -2.10306 13.13010 -1.61113 -1.64974 26.05210 -1.28193 2.73323 -5.17086 11.30690 -0.00000 0.00000 -0.00000 -128.66000 -45.84630 -114.16600 -42.54080 57.16210 -69.95900 21.00070 6.35621 -15.48540 13.17890 1.19517 4.80584 93.75430 -7.30268 78.49970 11.52350 33.68310 97.81290 20.68490 12.93180 11.92140 31.27020 -11.37520 -11.59540 -27.61710 14.14710 73.09900 3.94126 19.44800 -1.06151 2.61468 -27.65220 -66.88180 -33.52000 10.37500 22.58760 42.15560 21.22630 -27.27840 -22.78000 30.38030 7.74935 5.72236 -49.51440 3.96631 
